<?xml version="1.0" encoding="UTF-8" standalone="no"?>
<svg
   xmlns:dc="http://purl.org/dc/elements/1.1/"
   xmlns:cc="http://creativecommons.org/ns#"
   xmlns:rdf="http://www.w3.org/1999/02/22-rdf-syntax-ns#"
   xmlns:svg="http://www.w3.org/2000/svg"
   xmlns="http://www.w3.org/2000/svg"
   xmlns:sodipodi="http://sodipodi.sourceforge.net/DTD/sodipodi-0.dtd"
   xmlns:inkscape="http://www.inkscape.org/namespaces/inkscape"
   xml:space="preserve"
   style="enable-background:new 0 0 297 297;"
   viewBox="0 0 297 297"
   y="0px"
   x="0px"
   id="Capa_1"
   version="1.1"
   sodipodi:docname="location_pin_formatted.svg"
   inkscape:version="0.92.4 (5da689c313, 2019-01-14)"><sodipodi:namedview
   pagecolor="#ffffff"
   bordercolor="#666666"
   borderopacity="1"
   objecttolerance="10"
   gridtolerance="10"
   guidetolerance="10"
   inkscape:pageopacity="0"
   inkscape:pageshadow="2"
   inkscape:window-width="1366"
   inkscape:window-height="715"
   id="namedview54"
   showgrid="false"
   inkscape:zoom="1.8383838"
   inkscape:cx="165.36264"
   inkscape:cy="148.5"
   inkscape:window-x="-8"
   inkscape:window-y="-8"
   inkscape:window-maximized="1"
   inkscape:current-layer="Capa_1" /><metadata
   id="metadata94"><rdf:RDF><cc:Work
       rdf:about=""><dc:format>image/svg+xml</dc:format><dc:type
         rdf:resource="http://purl.org/dc/dcmitype/StillImage" /><dc:title /></cc:Work></rdf:RDF></metadata><defs
   id="defs92" />
<g
   id="g57"
   transform="matrix(0.03735895,0,0,0.03297029,142.9522,143.60439)">
	<path
   id="path53"
   d="M 148.5,0 C 87.43,0 37.747,49.703 37.747,110.797 c 0,91.026 99.729,179.905 103.976,183.645 1.936,1.705 4.356,2.559 6.777,2.559 2.421,0 4.841,-0.853 6.778,-2.559 4.245,-3.739 103.975,-92.618 103.975,-183.645 C 259.253,49.703 209.57,0 148.5,0 Z m 0,272.689 C 126.451,251.323 58.257,179.66 58.257,110.797 58.257,61.013 98.74,20.51 148.5,20.51 c 49.76,0 90.243,40.503 90.243,90.287 0,68.862 -68.194,140.525 -90.243,161.892 z"
   inkscape:connector-curvature="0" />
	<path
   id="path55"
   d="m 148.5,59.183 c -28.273,0 -51.274,23.154 -51.274,51.614 0,28.461 23.001,51.614 51.274,51.614 28.273,0 51.274,-23.153 51.274,-51.614 0,-28.46 -23.001,-51.614 -51.274,-51.614 z m 0,82.718 c -16.964,0 -30.765,-13.953 -30.765,-31.104 0,-17.15 13.801,-31.104 30.765,-31.104 16.964,0 30.765,13.953 30.765,31.104 0,17.151 -13.801,31.104 -30.765,31.104 z"
   inkscape:connector-curvature="0" />
</g>
<g
   id="g59"
   transform="matrix(0.03735895,0,0,0.03297029,142.9522,143.60439)">
</g>
<g
   id="g61"
   transform="matrix(0.03735895,0,0,0.03297029,142.9522,143.60439)">
</g>
<g
   id="g63"
   transform="matrix(0.03735895,0,0,0.03297029,142.9522,143.60439)">
</g>
<g
   id="g65"
   transform="matrix(0.03735895,0,0,0.03297029,142.9522,143.60439)">
</g>
<g
   id="g67"
   transform="matrix(0.03735895,0,0,0.03297029,142.9522,143.60439)">
</g>
<g
   id="g69"
   transform="matrix(0.03735895,0,0,0.03297029,142.9522,143.60439)">
</g>
<g
   id="g71"
   transform="matrix(0.03735895,0,0,0.03297029,142.9522,143.60439)">
</g>
<g
   id="g73"
   transform="matrix(0.03735895,0,0,0.03297029,142.9522,143.60439)">
</g>
<g
   id="g75"
   transform="matrix(0.03735895,0,0,0.03297029,142.9522,143.60439)">
</g>
<g
   id="g77"
   transform="matrix(0.03735895,0,0,0.03297029,142.9522,143.60439)">
</g>
<g
   id="g79"
   transform="matrix(0.03735895,0,0,0.03297029,142.9522,143.60439)">
</g>
<g
   id="g81"
   transform="matrix(0.03735895,0,0,0.03297029,142.9522,143.60439)">
</g>
<g
   id="g83"
   transform="matrix(0.03735895,0,0,0.03297029,142.9522,143.60439)">
</g>
<g
   id="g85"
   transform="matrix(0.03735895,0,0,0.03297029,142.9522,143.60439)">
</g>
<g
   id="g87"
   transform="matrix(0.03735895,0,0,0.03297029,142.9522,143.60439)">
</g>
</svg>